<svg viewBox="0 0 22 22" xmlns="http://www.w3.org/2000/svg"><path d="m3 3.0019531v15.9980469h16v-15.9980469zm1 .9980469h14v14h-14zm6.900391.7011719-.800782.5996093 1.275391 1.6992188h-1.375v1h1v3h-1.8828125l.1054687-.052734-.4453124-.894532-.7773438.388672v-2.441406h1v-1h-1v-2h-1v2h-2v1h2v2.941406l-2.2226562 1.111328.4453124.894532 1.7773438-.888672v3.941406h-2v1h3v-5.441406l1-.5v.941406h1.960938c-.088677.895032-.391653 1.61152-.792969 2.306641-.4973153.8613-1.5097659 1.830078-1.5097659 1.830078l.6835938.728515s1.0706891-.983593 1.6914061-2.058593c.44869-.777211.829641-1.68794.925781-2.806641h2.041016v5h1v-5h2v-1h-2v-3h2v-1h-2.375l1.275391-1.6992188-.800782-.5996093-1.5 2 .398438.2988281h-1.996094l.398438-.2988281zm1.099609 3.2988281h2v3h-2z" fill="#232629"/></svg>